<?xml version="1.0" encoding="UTF-8" standalone="no"?>
<!-- Generator: Adobe Illustrator 23.1.0, SVG Export Plug-In . SVG Version: 6.00 Build 0)  -->

<svg
   xmlns:dc="http://purl.org/dc/elements/1.1/"
   xmlns:cc="http://creativecommons.org/ns#"
   xmlns:rdf="http://www.w3.org/1999/02/22-rdf-syntax-ns#"
   xmlns:svg="http://www.w3.org/2000/svg"
   xmlns="http://www.w3.org/2000/svg"
   xmlns:sodipodi="http://sodipodi.sourceforge.net/DTD/sodipodi-0.dtd"
   xmlns:inkscape="http://www.inkscape.org/namespaces/inkscape"
   version="1.1"
   id="svg2"
   inkscape:version="0.92.4 (5da689c313, 2019-01-14)"
   sodipodi:docname="nwo.svg"
   x="0px"
   y="0px"
   viewBox="0 0 466.2 395.8"
   style="enable-background:new 0 0 466.2 395.8;"
   xml:space="preserve"><metadata
   id="metadata4148"><rdf:RDF><cc:Work
       rdf:about=""><dc:format>image/svg+xml</dc:format><dc:type
         rdf:resource="http://purl.org/dc/dcmitype/StillImage" /><dc:title></dc:title></cc:Work></rdf:RDF></metadata><defs
   id="defs4146">
	

		
	
			
			
			
		</defs><sodipodi:namedview
   pagecolor="#ffffff"
   bordercolor="#666666"
   borderopacity="1"
   objecttolerance="10"
   gridtolerance="10"
   guidetolerance="10"
   inkscape:pageopacity="0"
   inkscape:pageshadow="2"
   inkscape:window-width="640"
   inkscape:window-height="480"
   id="namedview4144"
   showgrid="false"
   inkscape:zoom="0.59626076"
   inkscape:cx="233.10001"
   inkscape:cy="197.89999"
   inkscape:window-x="0"
   inkscape:window-y="31"
   inkscape:window-maximized="0"
   inkscape:current-layer="svg2" />
<style
   type="text/css"
   id="style4004">
	.st0{fill:#418FDE;}
</style>
<g
   id="g4568"
   transform="translate(23.47966,35.21949)"><path
     class="st0"
     d="m 191.16126,-6.697668 c -91,0 -165,74 -165,164.999998 0,91 74,165 165,165 91,0 165,-74 165,-165 0,-90.999998 -74,-164.999998 -165,-164.999998 z m 0,196.499998 c -17.4,0 -31.5,-14.1 -31.5,-31.5 0,-17.4 14.1,-31.5 31.5,-31.5 17.4,0 31.5,14.1 31.5,31.5 0,17.4 -14.1,31.5 -31.5,31.5 z m 23.7,-58 c -5.8,-5.2 -13.3,-8.5 -21.6,-9 V 95.802332 c 15.7,0.5 30,6.799998 40.7,16.899998 z m -25.7,-9 c -8.3,0.5 -15.8,3.8 -21.6,9 l -19.1,-19.1 c 10.7,-10.1 25,-16.399998 40.7,-16.899998 z m -24.4,11.9 c -5.2,5.8 -8.5,13.3 -9,21.6 h -27 c 0.5,-15.7 6.8,-30 16.9,-40.7 z m -9,25.6 c 0.5,8.3 3.8,15.8 9,21.6 l -19.1,19.1 c -10.1,-10.7 -16.4,-25 -16.9,-40.7 z m 11.8,24.5 c 5.8,5.2 13.3,8.5 21.6,9 v 27 c -15.7,-0.5 -30,-6.8 -40.7,-16.9 z m 25.6,8.9 c 8.3,-0.5 15.8,-3.8 21.6,-9 l 19.1,19.1 c -10.7,10.1 -25,16.4 -40.7,16.9 z m 24.5,-11.8 c 5.2,-5.8 8.5,-13.3 9,-21.6 h 27 c -0.5,15.7 -6.8,30 -16.9,40.7 z m 9,-25.6 c -0.5,-8.3 -3.8,-15.8 -9,-21.6 l 19.1,-19.1 c 10.1,10.7 16.4,25 16.9,40.7 z m 10.1,-46.4 c -11.5,-10.799998 -26.7,-17.599998 -43.6,-18.099998 v -30 c 25.1,0.5 47.9,10.7 64.8,26.9 z m -47.6,-18.099998 c -16.8,0.5 -32.1,7.3 -43.6,18.099998 l -21.2,-21.199998 c 16.9,-16.2 39.7,-26.4 64.8,-26.9 z m -46.4,20.899998 c -10.8,11.5 -17.6,26.7 -18.1,43.6 h -30 c 0.5,-25.1 10.7,-47.9 26.9,-64.799998 z m -18,47.6 c 0.5,16.8 7.3,32.1 18.1,43.6 l -21.3,21.2 c -16.2,-16.9 -26.4,-39.7 -26.9,-64.8 z m 20.9,46.4 c 11.5,10.8 26.7,17.6 43.6,18.1 v 30 c -25.1,-0.5 -47.9,-10.7 -64.8,-26.9 z m 47.5,18 c 16.8,-0.5 32.1,-7.3 43.6,-18.1 l 21.2,21.2 c -16.9,16.2 -39.7,26.4 -64.8,26.9 z m 46.4,-20.9 c 10.8,-11.5 17.6,-26.7 18.1,-43.6 h 30 c -0.5,25.1 -10.7,47.9 -26.9,64.8 z m 18.1,-47.5 c -0.5,-16.8 -7.3,-32.1 -18.1,-43.6 l 21.2,-21.199998 c 16.2,16.899998 26.4,39.699998 26.9,64.799998 z m 3.1,-70.399998 c -17.6,-16.9 -41.4,-27.5 -67.6,-28 v -26.6 c 33.5,0.5 63.9,14.1 86.3,35.8 z m -71.6,-28.1 c -26.2,0.5 -50,11.1 -67.6,28 l -18.7,-18.7 c 22.4,-21.7 52.8,-35.3 86.3,-35.8 z m -70.4,30.9 c -16.9,17.599998 -27.5,41.399998 -28,67.599998 h -26.5 c 0.5,-33.5 14.1,-63.899998 35.8,-86.299998 z m -28,71.599998 c 0.5,26.2 11.1,50 28,67.6 l -18.7,18.7 c -21.7,-22.4 -35.3,-52.8 -35.8,-86.3 z m 30.8,70.4 c 17.6,16.9 41.4,27.5 67.6,28 v 26.5 c -33.5,-0.5 -63.9,-14.1 -86.3,-35.8 z m 71.6,28.1 c 26.2,-0.5 50,-11.1 67.6,-28 l 18.7,18.7 c -22.4,21.7 -52.8,35.3 -86.3,35.8 z m 70.5,-30.9 c 16.9,-17.6 27.5,-41.4 28,-67.6 h 26.5 c -0.5,33.5 -14.1,63.9 -35.8,86.3 z m 28,-71.6 c -0.5,-26.2 -11.1,-50 -28,-67.599998 l 18.7,-18.7 c 21.7,22.4 35.3,52.799998 35.8,86.299998 z m -9.3,-91.999998 c -23.2,-22.5 -54.5,-36.5 -89.2,-37 v -30 c 42.9,0.5 81.8,17.9 110.4,45.8 z m -93.2,-37 c -34.6,0.5 -66,14.5 -89.2,37 l -21.1,-21.2 c 28.6,-27.9 67.5,-45.3 110.4,-45.8 v 30 z m -92,39.8 c -22.5,23.2 -36.5,54.499998 -37,89.199998 h -30 c 0.5,-42.9 17.9,-81.799998 45.8,-110.399998 z m -36.9,93.199998 c 0.5,34.6 14.5,66 37,89.2 l -21.3,21.1 c -27.9,-28.5 -45.2,-67.4 -45.7,-110.3 z m 39.8,92 c 23.2,22.5 54.5,36.5 89.2,37 v 30 c -42.9,-0.5 -81.8,-17.9 -110.4,-45.8 z m 93.1,37 c 34.6,-0.5 66,-14.5 89.2,-37 l 21.2,21.2 c -28.6,27.9 -67.5,45.3 -110.4,45.8 z m 92,-39.9 c 22.5,-23.2 36.5,-54.5 37,-89.2 h 30 c -0.5,42.9 -17.9,81.8 -45.8,110.4 z m 37,-93.1 c -0.5,-34.6 -14.5,-65.999998 -37,-89.199998 l 21.2,-21.2 c 27.9,28.6 45.3,67.499998 45.8,110.399998 z"
     id="path4048"
     inkscape:connector-curvature="0"
     style="fill:#418fde" /><g
     transform="translate(-40.03874,-8.897668)"
     id="g4136">
				<polygon
   id="polygon59_9_"
   class="st0"
   points="239.7,129.1 239.7,130.3 240.7,130.2 240.7,129 "
   style="fill:#418fde" />
				<rect
   id="rect61_9_"
   x="238.2"
   y="127.4"
   class="st0"
   width="1.3"
   height="1"
   style="fill:#418fde" />
				<polygon
   id="polygon63_9_"
   class="st0"
   points="237,127.3 237.1,126.3 235.9,126.1 235.8,127.1 "
   style="fill:#418fde" />
				<polygon
   id="rect65_9_"
   class="st0"
   points="233.7,126.6 233.8,125.6 235,125.7 234.8,126.7 "
   style="fill:#418fde" />
				<rect
   id="rect67_9_"
   x="225.2"
   y="125.4"
   class="st0"
   width="1.3"
   height="1"
   style="fill:#418fde" />
				<polygon
   id="polygon69_9_"
   class="st0"
   points="223.5,127.6 223.6,126.6 222.5,126.4 222.3,127.4 "
   style="fill:#418fde" />
				<polygon
   id="rect71_9_"
   class="st0"
   points="221.1,128.6 221.4,127.6 222.7,128 222.5,129 "
   style="fill:#418fde" />
				<polygon
   id="rect73_9_"
   class="st0"
   points="219.9,129.2 220.9,129 221.1,130 220.1,130.2 "
   style="fill:#418fde" />
				<polygon
   id="polygon75_9_"
   class="st0"
   points="89.6,235.9 90.6,235.9 90.4,233.4 89.1,232.9 89.1,232 88.3,232 88.3,233.7 89.6,233.7 "
   style="fill:#418fde" />
				<polygon
   id="polygon77_9_"
   class="st0"
   points="96.6,239.8 99.1,241 99.9,243.3 101.1,244.2 102.2,246.7 101.6,247.9 99.7,246.2 98.4,244.3 97.7,242.8 "
   style="fill:#418fde" />
				<polygon
   id="polygon79_9_"
   class="st0"
   points="139.5,293.9 138.3,294.6 137.6,293.6 136,293.1 135.8,291.6 134.5,289.6 136.5,289.9 138.6,291.7 "
   style="fill:#418fde" />
				<path
   id="path81_9_"
   inkscape:connector-curvature="0"
   class="st0"
   d="m 226.1,139.9 h -1.8 l -0.3,-3.7 1,-0.7 v -1.9 h -5.8 l -0.2,-1.9 0.8,-0.5 -1.3,-0.5 -1,1.3 -0.3,1.5 -1.7,0.3 v 0.8 h -1.2 v 2.2 l -4.7,3.9 -9.3,-0.3 c -0.7,1.5 -2.3,-0.2 -2.3,-0.2 -0.3,-1 -2.7,0 -2.7,0 0,1.9 -3.2,-0.8 -3.2,-0.8 l -5.8,-4.2 c -3.3,-3 -8.3,0.8 -8.5,1.7 0.2,2.4 -3.8,0.5 -3.8,0.5 0,0 -3.3,-1 -3.8,0.3 -0.5,1.3 -2.7,1 -2.7,1 l -0.3,0.7 -1.7,0.3 -0.3,1 -2,0.3 5,-0.2 c 1.3,-0.2 -0.5,2.9 -1.3,2.7 l -2.3,0.2 -0.8,0.8 h -2.2 l -1,1.4 -3.2,-0.2 c 0,0 -1.8,1.5 -1.7,2 0.2,0.5 -0.3,2 -0.8,2 -0.5,0 -1.5,1.5 -1.2,2 0.3,0.5 -1,2.2 -1,2.2 l -0.3,1.7 -1,0.3 v 4.6 l -2,1.4 v 2 l -3,3.2 0.3,2.7 -2.5,2.7 0.3,2.7 -1.5,0.5 -0.3,1.2 -0.7,3.5 1.7,0.2 c 0.8,-0.3 0.7,2.2 0,2.5 -0.7,0.3 -2.5,1 -1.5,1.7 1,0.7 -2.7,0.5 -2.7,-0.5 0,-1 -2,-1.9 -2.5,-1.5 -0.5,0.3 -1.3,-1.5 -1.3,-1.5 -1.8,-1.9 -7.5,0.2 -7.5,0.2 l -0.8,2.7 c -1.8,0.3 -3,3.4 -3,3.4 -1.5,0.5 -2.7,2.4 -2.2,2.9 0.5,0.5 -0.8,0.7 -0.8,0.7 v 3.7 l -0.8,1.2 0.2,4 c 1,0 0.8,1.9 0.8,1.9 -1.7,0.2 -1.3,2.4 -1.3,2.4 l -3.5,1.2 -0.7,1 -4.3,-0.2 -1.2,1.2 -1.2,-1.2 h -8.3 l -0.3,-0.8 -1.7,-0.3 -0.2,-1.9 -2.5,0.2 -0.5,1 -2.7,0.2 c 0.2,1.7 -2.7,4.2 -3,3.5 -0.3,-0.7 -2.2,-2.5 -1.3,-2.9 0.8,-0.3 3,-0.7 3,-0.7 v -1.2 l -6.2,-0.2 -0.7,1 -2.5,0.2 v 2.7 l -1.2,0.3 c -0.8,0.5 0.2,2.4 0.2,2.4 1.2,1.2 -0.2,3 -0.2,3 -1,1 0.8,2.9 0.8,2.9 1.3,0.3 -0.8,1.3 -0.8,1.3 0.3,1.7 1.3,2.2 1.3,2.2 -1,1.7 0.7,2.5 0.7,2.5 l 0.2,2.9 1.2,0.7 v 1.9 l 0.7,1.2 h 2.7 l -0.2,-4.2 c -2.3,-2.7 2,-3.4 2.2,-2.4 0.2,1 2,1.5 2,1.5 0.3,2.5 3.2,4 4,1.5 0.8,-2.5 1.5,-1 2,0.2 0.5,1.2 3.7,4.1 3.7,4.1 h 2.5 l 0.3,2.4 c 2.8,-0.2 3.7,0.2 4.8,4 1.2,3.9 4.3,4.9 4.3,4.9 l 2.3,-0.2 c 0,-2 2.3,0.3 2.3,1.4 0,1 4.5,4.9 4.5,4.9 l 4.5,1 4.2,3.4 3.2,-0.3 h 1.3 c 0.8,-2.9 4.8,0.2 5.2,1.2 0.3,1 3,2.7 3.3,1.9 0.3,-0.8 2.2,-0.3 2.5,2.2 0.3,2.5 1.5,2 1.5,2 l 9.5,-0.2 3.3,-2.9 8.5,-0.2 c 4.3,-0.2 1.7,-6.1 0.8,-6.1 -1.5,-1.2 0.5,-6.1 0.5,-6.1 L 159,231.2 c -2.8,0 -0.3,-4.1 -0.3,-4.1 2.2,-1.4 -0.5,-3.5 -0.5,-3.5 0.3,-2 -1.2,-4.4 -1.2,-4.4 -3,-2 -2.2,-5.9 -2.2,-5.9 v -2.7 c -2.5,-2.4 1,-2.7 1,-2.7 1.2,-2 -0.8,-3.5 -0.8,-3.5 l -0.2,-2.2 -2.7,-0.3 -0.3,-7.9 -6,-8.6 c -1.2,-0.3 -0.3,-2.4 -0.3,-2.4 1.5,-0.8 -0.3,-2.9 -0.3,-2.9 l -0.2,-3.7 3.5,-0.3 0.8,-1.3 h 1.7 l -0.2,-4.4 c 0.8,-2.2 2.8,-1 2.8,-1 l 2.3,0.2 1.3,-2.5 0.3,-2 -1.8,-0.2 c -2,-1.2 -1,-5.6 -1,-5.6 3.2,-4.7 6.8,-2 6.8,-2 l 2.3,-0.2 c 3.5,2.4 0.3,6.7 0.3,6.7 -0.7,1 -0.3,4.2 -0.3,4.2 l 0.8,5.4 -2.2,1.9 c -1.8,1 -1.8,3.4 0.2,3.9 1.3,0.2 0.8,3.4 -1.2,1.2 -3,0 1.7,2.7 0.3,2 3,1.5 2.3,-1.3 2.3,-1.3 l 4,-3.2 c 1.5,-1.2 4.2,2.5 4.2,3 0,0.5 6.6,0.2 6.6,0.2 1.8,1.2 2.5,4.2 2.5,4.2 1.8,-2.4 5.7,-0.2 2.8,1.2 2.7,1.7 2.7,3.2 2.7,3.2 2.2,-0.7 2.2,1 2.2,1.5 0,0.5 0.7,-2.5 0.7,-2.5 -2.5,-1.9 3.3,-2.5 1.7,0.8 l -1,1.5 1.7,1.3 0.2,3.9 c 3.7,-0.3 2.7,-4.9 2.7,-4.9 l 1.7,-0.3 c 0,-1.5 1.2,-0.7 1.2,-0.7 -1.2,-5.7 2.7,-6.7 2.7,-6.7 2.2,-0.5 2.3,-5.1 2.3,-5.1 -1.5,-0.7 -0.7,-3 1,-1 1.7,2 -1,-4.1 -1,-4.1 l -1.3,-1.2 -1.8,-0.2 -0.2,-1.9 h -3 l -0.5,2.4 -1.1,0.5 -0.3,-0.7 -0.5,1.9 h -3 l -0.2,-2 1.8,-0.5 0.7,-1 0.5,-2.7 h 2.2 l 2.8,-0.8 c 0.2,-2.9 1.7,-2.2 1.7,-2.2 l 1,0.8 1.5,1.2 0.2,1 -1,0.5 -0.2,1.4 0.5,1.9 h 1.3 c 0.5,-2.7 4,-2.7 5,-1 l 1,-2.4 c -2.3,-1.2 0,-3 0.6,-2.2 0.7,0.8 2.2,-2.2 2.2,-2.2 0,0 1.2,1.5 0,-0.5 -1.2,-2 0.8,-3 0.8,-3 -0.3,-2 2.2,-1.7 2.2,-1.7 l 0.2,-2.7 -2.3,-0.2 c -0.5,2.4 -2.5,0.3 -1.5,-0.2 1,-0.5 2,-1.5 2,-1.5 v -1.7 l 1,-0.3 0.2,-1.7 h 2.5 l 2.2,-1 0.5,-0.8 2.3,-0.2 3.3,-3 -0.3,-1.3 c -2,0 0,-1.5 0,-1.5 z"
   style="fill:#418fde" />
				<path
   id="path83_9_"
   inkscape:connector-curvature="0"
   class="st0"
   d="m 159.1,173.3 -3,-0.3 0.2,1.2 h 0.8 c 1.3,2.4 0.2,8.1 0.2,8.1 0,0 -2,0.2 -2.3,-0.8 -0.3,-1 -1.2,2.2 -0.5,2.7 0.7,0.5 3,0 3.2,1.9 0.2,1.9 1.5,-1.2 1.5,-1.2 z"
   style="fill:#418fde" />
				<polygon
   id="polygon85_9_"
   class="st0"
   points="157.7,188 156.1,187 156.1,191 158.7,194.6 159.7,192.2 160.1,190.7 158.9,190.2 159.1,187.7 160.1,187.5 160.2,186.3 "
   style="fill:#418fde" />
				<polygon
   id="polygon87_9_"
   class="st0"
   points="160.4,196.6 159.2,196.8 159.1,198.1 160.4,198.3 "
   style="fill:#418fde" />
				<polygon
   id="polygon89_9_"
   class="st0"
   points="158.9,205.2 157.5,205.4 157.5,206.6 158.9,206.4 "
   style="fill:#418fde" />
				<path
   id="path91_9_"
   inkscape:connector-curvature="0"
   class="st0"
   d="m 160.9,201.2 c 0.4,0 0.7,-0.3 0.7,-0.7 0,-0.4 -0.3,-0.7 -0.7,-0.7 -0.4,0 -0.7,0.3 -0.7,0.7 0,0.4 0.3,0.7 0.7,0.7 z"
   style="fill:#418fde" />
				
					<circle
   id="circle93_9_"
   class="st0"
   cx="162"
   cy="204"
   r="0.69999999"
   style="fill:#418fde">
				</circle>
				
					<circle
   id="circle95_9_"
   class="st0"
   cx="162.10001"
   cy="184.7"
   r="0.69999999"
   style="fill:#418fde">
				</circle>
				<polygon
   id="polygon97_9_"
   class="st0"
   points="209.3,172.6 205.8,172.8 205.1,175.8 205.6,178.4 208.6,179.6 208.9,177.9 209.9,177.4 210.1,175.7 210.8,174.5 211.8,173.3 212.1,172 213.8,171 215.8,170.6 216.6,169.6 216.9,167.6 217.1,166.1 217.8,165 219.8,164.2 219.8,161 218.8,161 218.6,159.8 216.8,159.6 216.4,160.5 215.6,160.5 215.4,161.8 216.4,161.8 216.6,162.9 215.9,163.5 215.6,164.4 214.3,164.7 211.3,167.6 211.1,168.9 210.3,170.1 "
   style="fill:#418fde" />
				<path
   id="path99_9_"
   inkscape:connector-curvature="0"
   class="st0"
   d="m 223.2,171.3 v -2.4 l -0.3,-2.2 -2.5,-1.2 -1.8,1.7 -0.3,2.4 v 1.5 l -1.7,0.3 -0.3,4.6 -1.3,0.5 0.2,1.7 -1.8,0.5 -1.8,0.5 -0.3,2.2 -1.3,0.8 -0.7,2 -0.8,4.9 c 0,0 1.5,2.9 2.3,1.5 0.8,-1.3 2.2,-1.5 2.2,-1.5 l 0.5,-1.2 4.5,0.2 c 0.3,-1.9 2.5,-1.2 2.5,-0.3 0,0.8 1.7,0.2 1.7,0.2 l 1.2,-1.9 h 1.8 l 0.2,-2 0.8,-0.5 v -3 c 2.7,-0.8 2.3,-3.4 2.3,-3.4 l 0.7,-0.8 -0.3,-1.2 c -1.3,-0.5 -0.7,-1.7 0.2,-1.4 0.8,0.3 -1.2,-1.5 -1.2,-1.5 -1,0.8 -1.8,-1 -1.8,-1 z"
   style="fill:#418fde" />
				<path
   id="path101_9_"
   inkscape:connector-curvature="0"
   class="st0"
   d="m 225.9,191.7 c -0.2,2 -2.7,2.7 -2.7,2.7 l -1.8,-0.5 -1,-0.8 -0.2,-2.4 1.5,-0.2 0.3,1 z"
   style="fill:#418fde" />
				<path
   id="path103_9_"
   inkscape:connector-curvature="0"
   class="st0"
   d="m 234.9,180.9 c 0.4,1.5 0.3,-2.4 1,-2.2 0.7,0.2 0.2,-2.4 0.2,-2.4 l -3,2.2 c 1.4,0.2 1.6,1.7 1.8,2.4 z"
   style="fill:#418fde" />
				<path
   id="path105_9_"
   inkscape:connector-curvature="0"
   class="st0"
   d="m 243.7,172.1 c 0.7,1.5 0.5,3.7 3,5.4 0.8,0.6 -0.5,1.7 -1.3,1.2 -0.8,-0.5 -3.2,-4.2 -3.2,-4.2 v -2.2 c 0.5,-1.3 1.2,-0.8 1.5,-0.2 z"
   style="fill:#418fde" />
				<polygon
   id="polygon107_9_"
   class="st0"
   points="244.9,222.6 243.7,223.4 244.2,223.9 244.7,224.8 245.8,222.9 "
   style="fill:#418fde" />
				<line
   id="line109_9_"
   class="st0"
   x1="239.5"
   y1="220.7"
   x2="239.5"
   y2="222.8"
   style="fill:#418fde" />
				<polygon
   id="polygon111_9_"
   class="st0"
   points="264.9,217.4 264.4,216.6 263,217.4 263.6,218.3 "
   style="fill:#418fde" />
				<path
   id="path113_9_"
   inkscape:connector-curvature="0"
   class="st0"
   d="m 311.7,253.5 1.5,0.7 0.2,2.9 c 2,2 8.5,0.3 8.5,-0.2 0,-0.5 -0.3,-6.2 -0.3,-6.2 l -0.8,-0.8 -0.2,-4.2 c 0.7,-2.2 -3.2,-5.4 -3.5,-4.7 -0.3,0.7 -2.5,0.2 -2.5,0.8 0,0.7 -1.3,4 -0.7,5.2 0.7,1.2 -0.5,1.2 -0.7,2.4 -0.2,1 -1.9,3 -1.5,4.1 z"
   style="fill:#418fde" />
				<path
   id="path115_9_"
   inkscape:connector-curvature="0"
   class="st0"
   d="m 308,246.7 c -0.3,1.3 -1.5,2 -2.2,1.5 -0.7,-0.5 0.8,0.8 1.2,1.5 0.3,0.7 1.3,0.7 1.7,0 0.3,-0.7 0.2,-2.2 0.5,-2.9 0.3,-0.6 -1,-0.8 -1.2,-0.1 z"
   style="fill:#418fde" />
				<rect
   id="rect117_9_"
   x="300.29999"
   y="215.8"
   class="st0"
   width="1.2"
   height="3.2"
   style="fill:#418fde" />
				<path
   id="path119_9_"
   inkscape:connector-curvature="0"
   class="st0"
   d="m 317.5,183.3 c -0.7,-1 3.3,-2.7 4,-0.7 0.7,2 0,1.7 -0.7,1.5 -0.6,-0.2 -2.3,0.5 -3.3,-0.8 z"
   style="fill:#418fde" />
				<polygon
   id="polygon123_9_"
   class="st0"
   points="320.9,161.7 322.7,162 322.9,161 321.1,160.7 "
   style="fill:#418fde" />
				<polygon
   id="polygon125_9_"
   class="st0"
   points="314.9,164.1 315.2,164.3 315.4,164.1 316.4,163.6 316.5,163.9 317.5,163.5 317.1,162.7 316.9,162.1 316.4,162.4 315.2,163.1 314.1,162.4 313.6,163.3 "
   style="fill:#418fde" />
				<path
   id="path127_9_"
   inkscape:connector-curvature="0"
   class="st0"
   d="m 322.7,122.5 h -2.5 c 0,0 0.8,0.3 -1.5,-1.9 -2.3,-2.2 -3.8,0.5 -3.8,0.5 l -2.7,0.3 v 2.7 l -1.3,0.5 0.2,1.7 1.8,-0.2 c 0,0 0,2 0.5,1.2 0.5,-0.8 4.7,0.2 4.3,2.2 -0.1,0.8 4.2,3 3.7,5.7 2.2,0.3 1.7,2.5 1.7,2.5 l 2.8,0.3 0.8,-1.7 0.8,0.2 v -1 l -1.8,-0.5 -0.3,-5.4 -1.2,-0.8 0.3,-1.4 -1.3,-0.5 0.7,-2.2 z"
   style="fill:#418fde" />
				<path
   id="path129_9_"
   inkscape:connector-curvature="0"
   class="st0"
   d="m 330,139.7 -1.3,-0.2 -3,0.5 -1.7,3.2 c 0,0 0.8,0.5 1.5,1.7 0.7,1.2 1,8.1 -1,9.3 -2,1.2 0.2,0.5 0.2,0.5 l -0.3,3.7 c 0.5,1.7 1.3,0.8 1.8,0 0.5,-0.8 1,-1 1.7,-1.9 0.7,-0.8 1.7,-2.4 1.8,-3.5 0.2,-1.2 1,-3 0.5,-3.5 -0.5,-0.5 0.5,-2.9 0.5,-2.9 0,0 0.7,-1.4 0,-2.7 -0.7,-1.4 0.2,-2.9 0.7,-3.5 z"
   style="fill:#418fde" />
				<polygon
   id="rect133_9_"
   class="st0"
   points="332.1,145.3 333.1,145.4 333,146.8 332,146.6 "
   style="fill:#418fde" />
				<polygon
   id="rect135_9_"
   class="st0"
   points="331,150.8 331.5,149.8 332.4,150.3 331.9,151.3 "
   style="fill:#418fde" />
				<path
   id="path137_9_"
   inkscape:connector-curvature="0"
   class="st0"
   d="m 330.5,137.9 -0.7,-1.5 c 0,0 0,-1.3 0.3,-2 0.3,-0.7 -0.7,-1.3 -1.2,-1.5 -0.5,-0.2 -0.3,-1.5 -0.5,-2.2 -0.2,-0.7 -1.3,-1.2 -1.3,-1.2 0,0 -0.3,-2.5 -0.3,-3 0,-0.5 -1.5,-1.2 -1,-1.7 0.5,-0.5 0.8,-1.2 1.3,-1.5 0.5,-0.3 -0.5,-2.7 0.3,-2.2 0.8,0.5 0.8,1.4 1.2,2 0.3,0.7 -0.2,3 0.7,3.5 0.8,0.5 -0.2,2.2 1.2,2.2 1.3,0 0.5,3.2 0.5,3.2 0,0 -0.3,2.4 0.5,2.5 0.8,0.2 0.3,4.2 0.3,4.2 z"
   style="fill:#418fde" />
				<path
   id="path139_9_"
   inkscape:connector-curvature="0"
   class="st0"
   d="m 319.7,110.6 c 0.5,0.7 1.5,1.2 1.5,1.9 0,0.7 -0.3,1.2 0.7,1.3 1,0.2 1.7,-0.2 2,0.7 0.3,0.8 0.3,2.2 0.2,2.9 -0.2,0.7 0.2,1.7 1,1.7 0.8,0 1,0.2 1,0.7 0,0.5 1,-1.9 1,-1.9 -0.8,-0.7 -1.5,-2.2 -1.5,-2.2 0,0 -0.8,-2.4 -0.8,-2.7 0,-0.3 -1.2,-0.7 -1.7,-0.8 -0.5,-0.2 -1.3,-1.7 -1.3,-1.7 z"
   style="fill:#418fde" />
				<path
   id="path141_9_"
   inkscape:connector-curvature="0"
   class="st0"
   d="m 321.3,109 c -0.5,-0.7 -1,-1.2 -1.7,-1.5 -0.7,-0.3 -1.2,-0.7 -1.8,-0.7 -0.7,0 -1.3,-0.7 -1,-1.5 0.3,-0.8 -0.5,-1.2 -0.5,-1.9 0,-0.7 0.5,-0.7 1.3,-0.2 0.8,0.5 0.7,0.7 1.3,1.5 0.7,0.8 1,1.7 1.7,1.5 0.7,-0.2 1.2,1.5 1.8,1 0.7,-0.5 0.5,1.2 0.5,1.2 z"
   style="fill:#418fde" />
				<path
   id="path143_9_"
   inkscape:connector-curvature="0"
   class="st0"
   d="m 301.9,128.1 c 0.9,0.9 -5,0.7 -5,0 0,-0.7 0.5,-3 2,-2.5 1.5,0.5 1.7,-3 1.7,-3 0,0 -1.3,0.2 -0.2,-0.5 1.2,-0.7 0,-1.7 -0.5,-2.2 -0.5,-0.5 -1,-1.4 -1,-1.4 h 2.3 c 1,-0.7 1.3,-3.9 1.3,-3.9 2,0.7 3,-0.7 3,-0.7 0,0 0.3,1 1,1.9 0.7,0.8 -1.7,1.2 -0.8,1.7 0.8,0.5 1.2,2 0.8,2.5 -0.3,0.5 -2.2,0.2 -2.2,-0.5 0,-0.7 -0.7,0.8 0,1.7 0.7,0.8 -0.8,2 -1.2,2 -0.3,0 -2.5,0.3 -0.7,1.4 1.8,1 3.8,0.5 3.8,0.5 0,0 1.5,-0.2 2,0.7 0.5,0.8 -0.2,1 -1,1 -0.8,0 -4.8,-0.3 -4.8,-0.3 0,0 -1,1.1 -0.5,1.6 z"
   style="fill:#418fde" />
				<path
   id="path145_9_"
   inkscape:connector-curvature="0"
   class="st0"
   d="m 291.2,129.6 c 0.8,-0.2 2.8,-0.3 3.2,0.2 0.3,0.5 -1.2,1.2 -1.2,1.2 l -2,0.3 c -0.6,-0.8 -0.8,-1.5 0,-1.7 z"
   style="fill:#418fde" />
				<path
   id="path147_9_"
   inkscape:connector-curvature="0"
   class="st0"
   d="m 312.7,115.5 c 1.3,-0.7 4.2,-0.7 4,-1.7 -0.2,-1 1.7,-1.3 1.7,-1.3 l 0.5,2 1.5,1 0.2,1.9 c 0,0 0.5,-0.3 -1.3,0.2 -1.8,0.5 -0.7,1.3 -0.7,1.3 l -4,0.2 -0.5,-1.7 z"
   style="fill:#418fde" />
				<path
   id="path149_9_"
   inkscape:connector-curvature="0"
   class="st0"
   d="m 306.2,106.3 c 1,0 -0.3,3.9 2.3,3.5 2.7,-0.3 0.2,1.2 2.2,1.3 2,0.2 1.5,-1.5 2.2,-2.7 0.7,-1.2 0.3,-1.9 -0.8,-2.2 -1.2,-0.3 -1.2,-0.3 -1.5,-1.7 -0.3,-1.3 -1.7,-1.7 -1.7,-1.7 l -0.5,-2 -2.2,1.3 -2.2,2.9 c 0,2.4 1.2,1.3 2.2,1.3 z"
   style="fill:#418fde" />
				<polygon
   id="rect153_9_"
   class="st0"
   points="311.1,119.6 312,120 311.5,121.1 310.6,120.6 "
   style="fill:#418fde" />
				<rect
   id="rect155_9_"
   x="308.89999"
   y="119"
   class="st0"
   width="1"
   height="1.2"
   style="fill:#418fde" />
				<polygon
   id="rect157_9_"
   class="st0"
   points="309.9,98 308.9,98.1 308.7,96.6 309.7,96.5 "
   style="fill:#418fde" />
				<rect
   id="rect159_9_"
   x="306.89999"
   y="112.2"
   class="st0"
   width="1"
   height="0.80000001"
   style="fill:#418fde" />
				<polygon
   id="rect161_9_"
   class="st0"
   points="304.1,111.2 305.8,111.1 305.9,112.1 304.2,112.2 "
   style="fill:#418fde" />
				<polygon
   id="rect163_9_"
   class="st0"
   points="289.6,128.1 290.1,126.9 291,127.3 290.5,128.5 "
   style="fill:#418fde" />
				<polygon
   id="rect165_9_"
   class="st0"
   points="285.2,124.4 286.9,124.2 287,125.2 285.3,125.4 "
   style="fill:#418fde" />
				<polygon
   id="polygon169_9_"
   class="st0"
   points="252.8,125.2 252.9,126.2 256.5,126.1 256.5,125.1 "
   style="fill:#418fde" />
				<polygon
   id="rect171_9_"
   class="st0"
   points="250,125 251,124.8 251.3,126.3 250.4,126.5 "
   style="fill:#418fde" />
				<polygon
   id="rect173_9_"
   class="st0"
   points="249.4,126.6 249.9,126.5 250.2,127.4 249.7,127.6 "
   style="fill:#418fde" />
				<path
   id="path175_9_"
   inkscape:connector-curvature="0"
   class="st0"
   d="m 258,124.7 -0.2,1.2 1.8,0.2 c 0,0 0.8,0.7 0.8,1.2 0,0.5 1.2,1 1.8,1 0.7,0 2.5,-1.4 2.5,-1.4 0,0 0.8,-2.4 0.2,-2.2 -0.7,0.2 -2,1.2 -2.2,0.2 -0.2,-1 -2.2,-0.5 -2.2,-0.5 z"
   style="fill:#418fde" />
				<path
   id="path177_9_"
   inkscape:connector-curvature="0"
   class="st0"
   d="m 266.3,122.9 c 0,0.5 -0.3,1.2 0.7,1.4 1,0.2 2.8,-0.7 3,0.3 0.2,1 0.2,1.7 1.5,2.2 1.3,0.5 2.2,0.7 3.2,0.7 1,0 3.2,-0.3 3.2,-0.3 0,0 2.4,0.4 2.8,0.8 1.8,1.9 3,2.4 3.5,1.5 0.5,-0.8 -0.2,-2.7 -0.3,-3.4 -0.2,-0.7 -2.5,-3.9 -3.3,-3.2 -0.8,0.7 -1,0 -2.5,0.5 -1.5,0.5 -4.7,0.2 -4.8,-0.5 -0.2,-0.7 -2.5,-1 -2.5,-1.7 0,-0.7 -1.7,-1.5 -1.5,-0.5 0.2,1 -1.2,1.5 -1.5,1.2 -0.5,-0.4 -1.5,1 -1.5,1 z"
   style="fill:#418fde" />
				<path
   id="path179_9_"
   inkscape:connector-curvature="0"
   class="st0"
   d="m 304.5,101.3 1.2,-3.7 c -1.7,-0.3 -1.3,-2.2 -1.3,-2.2 -0.2,-1.5 -2.5,-3.2 -3.3,-2.7 -0.8,0.5 -0.5,-3.5 -0.5,-3.5 0,0 1.5,-1 2.2,-0.5 0.7,0.5 -5.7,-8.4 -7,-7.6 -1.3,0.8 -4.3,-0.8 -4.2,-2.4 0.2,-1.5 -6,-6.6 -6,-6.6 0,0 -2,-1.3 -2.3,-0.3 -0.3,1 -1,1.7 0,2.2 1,0.5 0.8,-0.8 2,0.3 1.2,1.2 3.3,2.7 2.5,3.7 -0.8,1 -1.8,1.4 -1.8,1.4 l 1.2,1.4 h 1.8 l 0.3,2.9 c 0,0 2,1 2.5,2.2 0.5,1.2 0.5,1.9 0,2.5 -0.5,0.7 -1.5,1.9 -1.3,3 0.2,1.2 1.5,1.7 1.5,1.7 l 1.3,0.2 1,0.5 V 96 c 1.3,-0.3 3.5,1.5 3.3,2.7 -0.2,1.2 0.3,0.5 2,1.7 1.7,1.2 1.2,1.4 2.3,2.2 1.1,0.7 2.1,0.2 2.6,-1.3 z"
   style="fill:#418fde" />
				<path
   id="path181_9_"
   inkscape:connector-curvature="0"
   class="st0"
   d="m 277.1,78.3 c -0.2,-0.7 -0.5,-3 0.5,-2.9 1,0.2 0.3,0 1.5,0.5 1.2,0.5 1.3,-0.8 1.3,-0.8 h 1.8 l 2.3,1.9 -0.3,1.5 -1.7,0.2 c -0.8,-1.3 -2.5,-0.8 -2.2,0.3 0.3,1.2 -0.8,3.4 -1.5,3.5 -0.7,0.2 -2.8,0.2 -2.7,-0.8 0.3,-1 1,-3.4 1,-3.4 z"
   style="fill:#418fde" />
				<path
   id="path183_9_"
   inkscape:connector-curvature="0"
   class="st0"
   d="m 275.8,73.8 v -1.3 c 0,0 -0.2,-1.3 -1,-1.3 -0.8,0 -2.3,-1 -2,-1.7 0.3,-0.7 -2.8,-1.4 -2.8,-1.4 0,0 -2.8,-2.7 -1.8,-2.4 1,0.3 0.5,-1.2 0.5,-1.2 0,0 -2,0.3 -2.5,0.2 -0.5,-0.2 -0.3,-1.7 -0.3,-1.7 0,0 -2,-0.5 -2,0 0,0.5 0.7,0.5 1,1.5 0.3,1 0.2,2.7 1.7,3 1.5,0.3 1.8,0.7 2,1.4 0.2,0.7 2,0.8 2,0.8 l 1.3,0.7 z"
   style="fill:#418fde" />
				<polygon
   id="polygon185_9_"
   class="st0"
   points="257.3,55.2 256,54.9 256,56.4 257.8,56.6 "
   style="fill:#418fde" />
				<path
   id="path187_9_"
   inkscape:connector-curvature="0"
   class="st0"
   d="m 257.3,49.5 c -1.7,-1.3 2.3,1 2.3,1 1.3,0 2.2,1 2.2,1.5 0,0.5 1.8,0.3 1.8,0.3 l 0.2,-1.2 -1.3,-1.7 -1.2,-0.8 c 0,0 -1.8,-0.2 -1.8,-0.7 0,-0.4 -1.5,2.1 -2.2,1.6 z"
   style="fill:#418fde" />
				<path
   id="path189_9_"
   inkscape:connector-curvature="0"
   class="st0"
   d="m 287.9,50.5 c -0.5,1.5 -0.7,3.5 -1.5,3.5 -0.8,0 -0.5,2.2 -0.5,2.2 0,0 2.2,0 2.8,0.2 0.7,0.2 0.7,1.9 0.7,1.9 2.5,-0.2 3.5,3.2 3.2,4.1 -0.3,0.8 1,0.8 1,0.8 0,0 0,2.7 -0.3,3.4 -0.3,0.7 2.2,1.2 2.8,2.2 0.7,1 -0.3,4.4 -0.8,4.6 -0.5,0.2 1.3,0.7 1.2,1.5 -0.2,0.8 0.5,0 0.7,1.4 0.2,1.3 0.5,4.2 0.5,4.2 l 2.3,0.2 c 0.3,-2.2 4.6,-2.3 5.3,-2 2.8,1 5,5.4 5,6.4 0,1 -1.8,1.2 -1.8,1.2 l 0.3,4.9 c 2.8,0.8 5.2,4.9 4.8,5.6 -0.3,0.7 2,0.5 2,0.5 0.3,-3 3.2,-2 3.3,-1 0.2,1 0.7,3.2 0.7,3.2 l 0.8,1.5 1.2,1.2 1.8,-0.2 0.5,1 2.2,0.3 c 0,0 1.8,2 2,2.5 0.2,0.5 2.7,0.3 3.3,0.5 0.7,0.2 1.7,0.7 1.8,1.5 0.2,0.8 1.2,2.2 1.2,2.2 0,0 2,0.5 2.2,1.2 0.2,0.7 1,2.2 1,2.2 l 1.7,1.4 0.2,1.5 1.8,0.2 0.5,2 3,-0.2 1.7,-1.2 c 2.2,-1.2 3.7,-2.7 3.8,-3.4 0.2,-0.7 0.5,-3.2 2.2,-2.7 1.7,0.5 0.5,-3.7 0.5,-3.7 0,0 -2.3,-1.7 -2.2,-2.5 0.2,-0.8 -2.3,-2.5 -2.2,-3.2 0.2,-0.7 -2.2,-2 -2,-2.7 0.2,-0.7 -1.2,-2.5 -1.2,-2.5 l -2.5,-2.4 -0.3,-1.5 -2,-0.2 -4,-4.9 0.2,-1.4 -1.2,-0.2 v -1.9 l -1.2,-0.7 -1.8,-0.2 -3.7,-4 -0.3,-1.9 h -1.8 l 0.3,-3.5 c 1.2,-1.5 0.5,-4.4 0.5,-4.4 0,0 -2.3,1.2 -3.5,0.7 -1.2,-0.5 0.5,-1.7 0.5,-1.7 v -1.3 l -1,-1 c 0,0 -2.8,0.3 -3,-0.2 -0.2,-0.5 -0.7,-2.7 -0.7,-2.7 l -0.2,-2.9 -1.2,-0.5 -0.2,-1 -1.8,0.2 v -2 l -1,-0.3 -1,-0.5 -0.2,-2 -3.7,-0.2 -1.2,-1.7 -1.3,-2 -4.2,-0.3 -1,-1 -1.7,-0.3 -1.2,-0.5 -0.5,0.8 -3.2,0.2 -0.2,1 c -1.4,0.7 -8,0 -8.2,0.5 z"
   style="fill:#418fde" />
				<path
   id="path191_9_"
   inkscape:connector-curvature="0"
   class="st0"
   d="m 305.4,46.1 c -0.3,-1.3 3.3,-2.5 4.2,-1.5 0.8,1 3.2,1.2 3.5,6.2 0.1,1.8 -3,-1.9 -3,-1.9 l -2.5,-0.8 c -1.4,-0.3 -2.1,-1.1 -2.2,-2 z"
   style="fill:#418fde" />
				<polygon
   id="rect193_9_"
   class="st0"
   points="255.7,47.8 256.4,46.2 257.3,46.7 256.6,48.2 "
   style="fill:#418fde" />
				<path
   id="path195_9_"
   inkscape:connector-curvature="0"
   class="st0"
   d="m 248,31.6 -2.2,-2.2 v -1.9 l -0.7,-0.7 -0.7,-2.4 -2.2,-0.7 -2.2,0.8 -2.3,1.5 -2.5,0.3 -1.3,1.5 5.3,0.5 1,1.7 3.8,0.3 2.5,2.5 c 2.3,1 2.8,0 1.5,-1.2 z"
   style="fill:#418fde" />
				<path
   id="path197_9_"
   inkscape:connector-curvature="0"
   class="st0"
   d="m 247.7,23.3 c -0.4,-1.5 -2.5,1.9 -0.3,2.5 2.2,0.7 4.3,0 4.3,0 l 0.5,-1 8.3,0.2 c 0.7,-0.7 1,-1.7 1,-1.7 0,0 2,-0.7 2.8,-0.3 0.8,0.3 0.2,-2.4 -0.7,-2 -0.8,0.3 -2.5,0.2 -2.5,0.2 h -3 c -0.2,-1.2 -2.8,-0.7 -3,0 C 255,21.8 254,22 254,22 l -3.8,0.3 c -0.4,1 -2.3,1.7 -2.5,1 z"
   style="fill:#418fde" />
				<path
   id="path199_9_"
   inkscape:connector-curvature="0"
   class="st0"
   d="m 231.2,51.8 c 2.6,0.8 3.5,0.2 3.7,-0.5 0.2,-0.7 0.3,-0.8 1.3,-1 1,-0.2 -0.2,-2.2 -1.2,-2 -1,0.2 -2,-0.3 -2.2,-1.2 -0.2,-0.8 -1.8,-3 -2,-1.3 -0.2,1.7 -1.2,1.7 -1,2.9 0.3,1.1 0.8,2.9 1.4,3.1 z"
   style="fill:#418fde" />
				<path
   id="path201_9_"
   inkscape:connector-curvature="0"
   class="st0"
   d="m 212.1,53.7 c -0.1,-0.6 3.3,-0.7 3.8,-0.2 0.5,0.5 0.2,1.4 1.7,1.4 1.5,0 0.8,1 0.7,1.5 -0.2,0.5 -1.8,0.3 -2,-0.2 -0.2,-0.5 -2.7,-0.7 -2.7,-0.7 0,0 -1.3,-1 -1.5,-1.8 z"
   style="fill:#418fde" />
				<polygon
   id="polygon205_9_"
   class="st0"
   points="267.3,20 267.6,19.7 269.3,18.3 268.6,17.5 267.3,18.6 266.5,17.7 265.8,18.5 266.9,19.6 "
   style="fill:#418fde" />
				<polygon
   id="polygon207_9_"
   class="st0"
   points="259.7,15.5 261.6,14.3 261,13.5 259.5,14.5 258.4,13.8 257.9,14.7 259.2,15.5 259.5,15.7 "
   style="fill:#418fde" />
				<polygon
   id="polygon209_9_"
   class="st0"
   points="254.6,51.8 255.4,51.2 254.3,49.4 254.1,49.2 253.9,49.2 252.2,49 252.1,50 253.5,50.1 "
   style="fill:#418fde" />
				<path
   id="path211_9_"
   inkscape:connector-curvature="0"
   class="st0"
   d="m 199.1,96.2 0.2,1.9 h 2.5 c 1,0 -0.8,-1.2 -0.8,-1.2 0,0 -2,0.2 -1.9,-0.7 z"
   style="fill:#418fde" />
				<polygon
   id="rect213_9_"
   class="st0"
   points="202.9,95.5 203.9,96.3 203.3,97.1 202.3,96.3 "
   style="fill:#418fde" />
				<polygon
   id="rect215_9_"
   class="st0"
   points="172.7,64 173.7,65 173,65.7 172,64.7 "
   style="fill:#418fde" />
				<polygon
   id="polygon219_9_"
   class="st0"
   points="219.6,283.5 220.4,282.7 220.9,282.2 220.3,281.8 218.6,281 218.2,281.9 219.2,282.4 218.9,282.8 "
   style="fill:#418fde" />
				<polygon
   id="polygon221_9_"
   class="st0"
   points="207,271.4 207.6,270.6 206.9,270.1 207.4,269.7 206.8,268.9 205.8,269.8 205.3,270.2 205.8,270.6 "
   style="fill:#418fde" />
				<path
   id="path223_9_"
   inkscape:connector-curvature="0"
   class="st0"
   d="m 331.1,237.7 c -0.2,-0.9 -1.2,-1.2 -1.3,-1.2 l -0.3,1 v 0 c 0.1,0 0.2,0.1 0.3,0.2 l 0.2,0.9 c -0.1,0.1 -0.2,0.2 -0.2,0.3 l 0.7,0.7 c 0.5,-0.8 0.7,-1.3 0.6,-1.9 z"
   style="fill:#418fde" />
				<polygon
   id="polygon225_9_"
   class="st0"
   points="331,234.4 331.1,232.9 332.7,233.1 332.6,234.5 "
   style="fill:#418fde" />
				<path
   id="path227_9_"
   inkscape:connector-curvature="0"
   class="st0"
   d="m 371.1,221.4 c 0.7,-0.4 1.6,-1.3 1.5,0.6 -0.1,1.9 -0.9,1.3 -1.5,1.9 -0.6,0.6 -1,-1.9 0,-2.5 z"
   style="fill:#418fde" />
				<path
   id="path231_9_"
   inkscape:connector-curvature="0"
   class="st0"
   d="M 379.6,214.2 V 214 c 0,-0.3 -0.1,-0.7 -0.3,-1.1 l -0.9,0.5 c 0.1,0.2 0.1,0.5 0.2,0.7 0,0.3 0.1,0.6 0.3,0.8 0.2,0.1 0.4,0.2 0.7,0.1 l -0.2,-1 c 0,0.1 0.1,0.1 0.2,0.2 z"
   style="fill:#418fde" />
				<path
   id="path233_9_"
   inkscape:connector-curvature="0"
   class="st0"
   d="m 377.4,215 c 0.3,1 0.6,2 0.6,2.1 l 0.9,-0.4 c 0,0 -0.4,-1 -0.6,-2 z"
   style="fill:#418fde" />
				<path
   id="path235_9_"
   inkscape:connector-curvature="0"
   class="st0"
   d="m 373.7,219 -1,-0.1 c -0.1,0.8 0.1,1.8 0.9,1.9 l 0.2,-1 v 0 c 0,0 -0.1,-0.4 -0.1,-0.8 z"
   style="fill:#418fde" />
				<path
   id="path237_9_"
   inkscape:connector-curvature="0"
   class="st0"
   d="m 369.4,198.9 c -0.1,-0.3 -0.2,-0.6 -0.5,-0.7 -0.7,-0.3 -2,0.2 -2.6,0.6 l 0.6,0.8 c 0.6,-0.4 1.5,-0.6 1.6,-0.5 0,0 0,0 0,-0.1 z"
   style="fill:#418fde" />
				<path
   id="path241_9_"
   inkscape:connector-curvature="0"
   class="st0"
   d="m 323.3,145 c -0.7,0.7 -2.2,1 -2.2,1 l -0.5,1.9 -0.8,0.7 c 0,0 0.2,0.5 0,1.7 -0.2,1.2 -1.7,1.9 -1.7,1.9 l -0.7,0.8 c 0,0 -4,0.2 -4.5,0 -1.5,-0.7 -0.5,-2.7 0.5,-2.5 1,0.2 -0.2,-2.9 -0.2,-2.9 l 1.3,-0.2 c 0,0 0.2,-3 0.7,-3 0.5,0 -0.2,-1 -0.8,-1.5 -0.7,-0.5 -1.5,-2.2 -2.2,-2 -0.7,0.2 -3.3,0 -3.3,0 l -0.5,1 -1.8,0.3 c 0,0 0.2,1.3 -0.2,1.7 -1,1.2 -4.8,3.7 -3.2,-0.5 l 0.5,-1 v -1.5 l -3,-0.2 c 0,0 -1.5,-0.5 -1.5,-1.2 0,-0.7 -0.2,-1.5 -0.2,-1.5 l -3.5,-3.9 -4.2,-0.5 -0.3,-0.8 -2.5,-0.3 c -3,-1.5 -5.7,-0.2 -5.2,2.4 0.5,2.5 1.3,3.5 -0.3,3.5 -1.7,0 -2,-1.3 -2,-1.3 0,0 -1.3,-0.5 -1.3,0.2 0,0.7 -0.5,2 0,2.7 0.5,0.7 -0.7,1.7 -1.2,1.2 -0.5,-0.5 -1.8,-2 -1.5,-2.5 0.3,-0.5 -2.3,-3.7 0.3,-4.2 2.7,-0.5 -0.2,-2 0.8,-2.4 l 1.3,-0.7 h 1.3 l 0.8,-0.7 -2.2,-0.3 -1.3,-0.2 -2.5,-0.2 c -2.5,1.7 -3,3.7 -3,3.7 -1.3,2.5 -4.5,-1 -3.3,-2.4 1.2,-1.4 -3.7,-0.2 -4.5,0.5 -0.8,0.7 -3.3,0.3 -3.3,0.3 -0.5,1.5 -2.8,-0.2 -2.2,-1.2 0.7,-1 0.7,-1.7 0.7,-1.7 l -0.8,-0.2 -1,1.9 c -2.3,0 -3,1.3 -2.5,2.2 0.5,0.8 -0.7,-0.2 -1,1 -0.3,1.2 0.2,1.2 1.2,1.7 1,0.5 -0.5,0.5 0.2,1.3 0.7,0.8 2.7,0 1.5,1.2 -1.2,1.2 -3.5,0.7 -3.5,0.7 -0.2,1.5 -3.3,1.2 -3.7,0.7 -0.3,-0.5 -2.8,-3.5 -2.8,-3.5 l -3.2,-0.2 c -0.3,-2.4 1.5,-1.2 2.2,-3 0.7,-1.9 1,-4.9 1,-4.9 0,0 -2.7,-0.2 -2.8,0.7 -0.2,0.8 -1.8,1.4 -1.8,1.4 0,0 -1.3,0.5 -0.8,1.2 0.5,0.7 -1,1 -1,1 0,0 0.3,1.1 -0.2,1.5 -1.3,1.4 -4.7,0.2 -5.2,-0.3 l -2,-0.8 -2,-1.3 -2.3,1 -0.7,0.7 h -2.5 l -0.2,2 4.5,0.5 0.3,4.2 -1.8,-0.6 h -1.2 l -0.5,-1 -1,-0.2 v 3.7 l 1,0.8 0.8,0.8 1.7,0.2 0.3,2 4.2,0.2 0.5,0.8 2.5,0.2 4.8,4.9 -0.3,1.5 -0.8,0.5 c 0.3,1.2 -2.2,0.5 -2.2,0.5 v 1 l 1.2,0.2 1.2,0.7 1.7,-2.9 c 1.8,-1.2 2.7,0.5 2.8,1.5 0.2,1 -0.8,0.8 -0.8,0.8 v 2.4 l 1,0.3 c 1.7,2 -0.7,3.2 -0.7,3.2 l -0.5,1.7 c -0.5,1.5 -2.3,1.2 -2.3,1.2 l -0.7,1 -2,0.5 3.9,0.5 c 0.4,-1.4 1.4,-1.7 1.9,-1 0.5,0.7 0.5,1.9 0.5,1.9 l 1,0.2 -0.2,1.9 1,0.3 v 5.4 l 1.2,1.3 c 2,-0.8 2,0.5 1,1.2 -1,0.7 -0.3,3.7 -0.3,3.7 l -0.8,0.8 v 1.4 l -1,0.7 v 1.9 c -1.7,-0.8 -3.7,-0.5 -4.2,0 -1.5,-1 -4.7,-0.7 -4.7,0.2 1,1.3 -1.2,1.7 -1.2,1.7 l -1.2,1.3 c 0.8,1.7 -0.8,1.9 -0.8,1.9 v 3.2 l -2,1.9 0.2,4.4 c 0,1.2 2.5,1.3 3,0.7 0.5,-0.7 2.5,1.4 2.5,1.4 h 1.5 l 0.3,-3 -1,-0.5 v -4.9 l 1.7,-1.9 c 2,-0.7 1.3,4.4 1.3,4.9 0.2,1.9 1,1.7 1.8,1.3 1.7,-0.7 0.3,1.9 -1,1.7 -1.3,-0.2 -0.5,1.7 -0.5,1.7 l 0.8,0.3 -1.5,1.2 -1.3,1.5 -1.7,-0.5 -2,-0.2 -0.7,-1.2 -1.2,-0.2 -0.2,2.4 -0.8,1 -2,2 c 2.7,0 -0.3,1.9 -1,1.9 1.5,0.5 -0.2,2 -4,0.8 v 1.2 l -1.3,0.2 1.2,1.3 1.3,0.2 -0.5,2.9 c 0,2.2 -5.5,0.7 -6,0.2 l -0.2,3 -1,0.2 0.2,2 -0.2,2.9 1.8,-0.3 v 1.2 l 4.5,0.2 6.5,-6.9 3.8,-0.8 c 0.3,-1.7 2,0.3 2,0.3 1.7,-0.2 2,1 2,1 l 2.2,0.3 c 1.8,0.5 0.7,0.7 0.8,1.4 0.2,1 1,0.7 1,0.7 l 0.3,-2.2 1,0.2 -1,-1.2 -1.8,-0.8 -2,-0.8 c -1.3,-1.9 0.3,-1.5 1.7,-1.3 h 2.2 c 0,0 2.5,3.4 2.5,4.2 0,0.8 1.2,1 1.2,1 l 1.5,-0.2 0.5,1.2 h 1.5 l 0.5,1 h 3 l 0.2,-1.5 -2.8,-0.5 -0.2,-1.7 -2,-0.5 c -0.7,-2.9 0.5,-3.7 1.3,-2.4 l 1,0.2 -0.3,-2.5 1.2,-0.3 -0.3,-3.5 -1,-0.3 v -1.2 l 4.2,0.2 c -0.3,-2.2 0.2,-3.2 0.2,-3.2 h 1.2 l 0.2,0.8 5.1,0.5 3.6,-4.1 c -0.2,-0.3 0.4,-0.5 0,-0.9 -0.5,-0.5 -1.2,0 -2,-0.5 -0.8,-0.5 0,-3.4 -0.2,-4 -0.2,-0.7 2.8,-1.7 2.3,-0.2 -0.5,1.5 0,2.2 0,2.2 2.2,-2 4,0.2 3.8,0.7 -0.2,0.5 1.2,1 2,0.5 0.8,-0.5 1.8,1.5 1.5,2.5 -0.3,1 -3.3,0.8 -3.5,-0.2 -0.2,-1 -0.7,-0.7 -1,-0.2 -0.3,0.5 -1.8,0.8 -2.7,0.3 -0.2,-0.1 -0.2,-0.2 -0.3,-0.3 l -3.6,4.1 h 0.2 c 2,1.2 1,2.7 0.3,3 -0.7,0.3 -1.8,0.3 -1.8,0.3 l -0.3,0.7 -4.3,0.3 -0.3,1.7 c -2.2,-0.3 -3,2 -2.5,3.2 0.5,1.2 0,2.2 0,2.2 l 1.8,0.8 2.3,-0.7 c 0.3,-1.7 1.8,-2 3.2,-3 1.3,-1 3.5,1.9 2.8,3.2 -0.7,1.3 -0.7,1.9 -0.7,1.9 l 0.2,1.5 -1.7,0.7 -1.3,0.7 -0.2,0.8 h -4.5 l -0.8,0.8 -2.2,0.2 -0.7,1 -1.5,0.2 c 0,0 -2.5,1.2 -1.5,2.5 1,1.4 -4.2,1.2 -5.3,-0.7 -0.3,1.7 -2.2,0.2 -2.2,0.2 l -1.8,-0.5 -0.2,-2.5 c -0.3,-1.7 -3.5,-1.7 -3.3,-0.5 0.2,1.2 -6,0.5 -6,0.5 l -2,1 -1.8,1.1 -0.2,0.8 -3,0.3 -1.3,0.7 -0.5,-1 h -1.3 l -1.3,1.9 c -3.5,0.2 -6.8,2.2 -6.5,3 0.3,0.8 -1.3,1.7 -1.3,1.7 l -1.5,0.5 -1,1.5 -2,0.7 -0.3,3.5 -1,0.7 v 1.5 l -1.2,0.3 v 0.8 l -1.7,0.2 1,2.5 1.3,0.7 c 2.3,0.3 1.3,3.2 1.3,3.2 l 1.3,0.2 0.7,1.9 1.3,2.7 c 0.5,2 2,1.5 2.7,1.4 0.7,-0.2 1.3,2 1.3,2 l 6.6,0.2 c 0,0 -0.3,0.7 0.8,1 1.2,0.3 8.8,0.7 9.1,0.2 -0.3,-1.5 4.2,-1.9 6,-0.5 1.8,1.3 4.3,0.5 4.3,0.5 l 2.5,3 1.7,3.7 2.8,0.8 2,0.5 0.7,2.9 1.5,0.2 0.5,1.9 c 1.8,1.3 -0.5,4.2 -0.5,4.2 v 3.7 l 1.3,0.7 -0.2,1.4 2.2,2.2 2.5,0.2 6.3,6.7 5,1.5 0.8,2.7 1.3,-0.2 1,-0.8 4,-0.2 2,-1.9 2.2,-0.3 18.5,-15.7 -1.7,-1 v -3.7 c 3,-2.2 3.2,-6.1 0.3,-6.4 -2.1,-0.3 -1.2,-2.5 0.8,-2.9 l 1.2,-0.5 v -1.5 l 3.8,-3.5 V 256 l -8.3,-6.9 c -3.7,-1.3 0,-9.4 2.5,-9.3 2.5,0.2 -0.2,-12.5 -0.2,-12.5 l -1.3,-0.7 0.3,-4.1 h -1.8 l -3,3.9 -0.8,2.7 c -0.3,3.5 -10.6,2.9 -11.1,2.4 -0.5,-0.5 -4,-2 -4,-2 0,0 -2.7,-2.2 -3.2,-1.5 -0.5,0.7 -2.8,-0.8 -2.8,-0.3 0,0.5 -2.2,-1.2 -2.2,-1.2 l -3.3,-1.2 2.5,-0.5 -0.5,-2 4.3,2.2 c 0.5,0.7 2.7,0.5 2.7,0.5 l 0.7,0.8 c 0,0 1.3,-0.2 2.2,0.8 0.8,1 5.2,0.2 5.2,0.2 l 1.2,1 1.8,0.7 5.2,0.2 0.2,-3.2 1,-1 -0.2,-2 1.2,-1 v -1.7 l 1,-0.3 0.2,-3.7 0.8,-0.2 V 208 l -2.5,-2.4 c -0.2,0.8 -2.8,0.8 -2.8,0.8 0,0 -0.7,1.2 -1.2,1.2 -0.5,0 0.7,1.5 0.3,2.5 -0.3,1 -1.7,1 -1.7,1 l -2.5,0.7 -0.7,0.8 h -2.7 l -0.3,-2.2 3,-0.8 1.7,-0.8 0.8,-1.7 c 0.2,-1.7 2.2,-1.5 2.2,-1.5 0,0 3.8,-3.2 4,-4.7 0.2,-1.5 1.5,-5.7 3.8,-5.7 h 4.3 c 1.7,-0.7 1.2,-2.9 1.2,-2.9 l 2.2,-0.3 0.3,1.2 c 0,0 3,0.3 3.3,-0.2 0.3,-0.5 1,-1.7 1.8,-1.2 0.8,0.5 3.5,-1.2 3.5,-1.2 0.2,-1.2 4.3,-0.7 4.3,-0.7 l 0.5,-1.5 c 0,0 -2.8,-3.9 -3.3,-3.9 -0.5,0 -3.2,-2.4 -3.5,-1.5 -2.7,-0.7 -2.5,-4.4 -2.5,-4.4 l -1,-2.4 c 0,-1.4 -2.5,-4.2 -3,-3.9 -2.5,-1.9 -0.7,-4 0,-4.2 0.7,-0.2 2.3,-2.5 2.3,-2.5 l 0.8,-2.4 2.8,-0.8 0.3,-2.2 -1.5,-0.2 c 0,0 1.7,-3 2.5,-3 0.8,0 6.3,0 6.8,-0.3 0.5,-0.3 1.5,-3 1.5,-3.5 0,-0.5 1.3,-0.7 1.8,-0.8 0.5,-0.2 1.7,-1.5 2,-2.2 0.9,-1.7 -0.2,-5.9 -0.9,-5.2 z"
   style="fill:#418fde" />
				<path
   id="path245_9_"
   inkscape:connector-curvature="0"
   class="st0"
   d="m 231.2,205.8 c 0.2,-0.2 0.5,0.8 1,0.6 0.5,-0.1 0.7,0.9 0.2,0.9 -0.5,0 -0.5,0.6 -0.5,0.9 0,0.3 0,0.9 -0.4,1.3 -0.4,0.4 -0.7,0.1 -1.2,-0.1 -0.5,-0.3 -0.7,-0.3 -1.4,-0.3 -0.6,0 -0.1,1 -0.1,1 0,0 -2.6,-0.1 -2.1,-0.5 0.5,-0.4 1,-0.5 0.6,-0.8 -0.4,-0.3 0,-0.5 0,-1 0,-0.5 1.2,-0.3 0.9,-0.6 -0.4,-0.4 0,-1.8 0.6,-1 l 0.4,-0.9 c -0.4,-0.4 -0.1,-0.5 -0.9,-0.8 -0.7,-0.3 -0.1,-1.8 -0.1,-1.8 l 0.1,-1 c 0.2,-1.3 2.7,-1.4 2.9,-0.3 0.1,1.1 0,1.9 0,1.9 l 0.7,0.3 c 0,0 -0.1,0.8 -0.7,0.8 -0.6,0 0,0.4 -0.4,0.8 z"
   style="fill:#418fde" />
				<path
   id="path247_9_"
   inkscape:connector-curvature="0"
   class="st0"
   d="m 223,207.1 c 0.4,-0.8 1.2,-4 2.2,-3 1,1 1.6,0 1.6,0 0,0 0.5,0.5 0.2,1.5 -0.2,1 -0.5,2 -1.1,2.2 -0.6,0.1 -1.1,0.5 -1.9,0.6 -0.6,0.1 -1,-1.3 -1,-1.3 z"
   style="fill:#418fde" />
			</g></g>
</svg>